{"title":"Sorority.Party.Massacre.2013.720p.BRRiP.x264-Acesn8s","uid":8259227,"size":2169423638,"categoryP":"video","categoryS":"hd___movies","magnet":"?xt=urn:btih:15273f6a369dadb5113aa1067087f9127bf5cad6&amp;dn=Sorority.Party.Massacre.2013.720p.BRRiP.x264-Acesn8s&amp;tr=udp%3A%2F%2Ftracker.openbittorrent.com%3A80&amp;tr=udp%3A%2F%2Fopen.demonii.com%3A1337&amp;tr=udp%3A%2F%2Ftracker.coppersurfer.tk%3A6969&amp;tr=udp%3A%2F%2Fexodus.desync.com%3A6969","seeders":1,"leechers":1,"uploader":"Acesn8s","files":-1,"time":1363340510,"description":"Cover\n &lt;a href=&quot;\nhttp://www.shotpix.com/images/80246035938749816324.png&quot; rel=&quot;nofollow&quot; target=&quot;_NEW&quot;&gt;\nhttp://www.shotpix.com/images/80246035938749816324.png&lt;/a&gt;\n\nGeneral\nComplete name : Sorority.Party.Massacre.2013.720p.BRRiP.x264-Acesan8s\nFormat : MPEG-4\nFormat profile : Base Media\nCodec ID : isom\nFile size : 2.00 GiB\nDuration : 1h 43mn\nOverall bit rate mode : Variable\nOverall bit rate : 2 770 Kbps\nEncoded date : UTC 2013-03-14 16:27:04\nTagged date : UTC 2013-03-14 16:27:04\n\nVideo\nID : 1\nFormat : AVC\nFormat/Info : Advanced Video Codec\nFormat profile : &lt;a class=&quot;__cf_email__&quot; href=&quot;/cdn-cgi/l/email-protection&quot; data-cfemail=&quot;6d25040a052d2159435c&quot;&gt;[email&amp;#160;protected]&lt;/a&gt;&lt;script cf-hash='f9e31' type=&quot;text/javascript&quot;&gt;\n/* &lt;![CDATA[ */!function(){try{var t=&quot;currentScript&quot;in document?document.currentScript:function(){for(var t=document.getElementsByTagName(&quot;script&quot;),e=t.length;e--;)if(t[e].getAttribute(&quot;cf-hash&quot;))return t[e]}();if(t&amp;&amp;t.previousSibling){var e,r,n,i,c=t.previousSibling,a=c.getAttribute(&quot;data-cfemail&quot;);if(a){for(e=&quot;&quot;,r=parseInt(a.substr(0,2),16),n=2;a.length-n;n+=2)i=parseInt(a.substr(n,2),16)^r,e+=String.fromCharCode(i);e=document.createTextNode(e),c.parentNode.replaceChild(e,c)}}}catch(u){}}();/* ]]&gt; */&lt;/script&gt;\nFormat settings, CABAC : Yes\nFormat settings, ReFrames : 5 frames\nCodec ID : avc1\nCodec ID/Info : Advanced Video Coding\nDuration : 1h 43mn\nBit rate : 2 127 Kbps\nMaximum bit rate : 8 065 Kbps\nWidth : 1 280 pixels\nHeight : 720 pixels\nDisplay aspect ratio : 16:9\nFrame rate mode : Constant\nFrame rate : 23.976 fps\nColor space : YUV\nChroma subsampling : 4:2:0\nBit depth : 8 bits\nScan type : Progressive\nBits/(Pixel*Frame) : 0.096\nStream size : 1.54 GiB (77%)\nWriting library : x264 core 129 r2245 bc13772\n\nAudio\nID : 2\nFormat : AAC\nFormat/Info : Advanced Audio Codec\nFormat profile : LC\nCodec ID : 40\nDuration : 1h 43mn\nBit rate mode : Variable\nBit rate : 640 Kbps\nMaximum bit rate : 655 Kbps\nChannel(s) : 6 channels\nChannel positions : Front: L C R, Side: L R, LFE\nSampling rate : 48.0 KHz\nCompression mode : Lossy\nDelay relative to video : 83ms\nStream size : 473 MiB (23%)\nSource : 1080P-VETO (thanks)\n\nCast:\n\nMarissa Skell .... Paige\nEd O'Ross ........ Sheriff Lumpkin\nEve Mauro ........ Brooklyn\nThomas Downey .... Det. Watts\nCasey Fitzgerald . Holly\n\nPlot: Afraid of losing his badge is in a detective from the big city\nwith it to a sheriff from a village to help with a routine job for a\ncouple of missing persons. He discovers that the past two decades,\nevery year at least one girl disappears in the sleepy fishing village Grizzly Cove.\n &lt;a href=&quot;\nhttp://www.imdb.com/title/tt2202569/&quot; rel=&quot;nofollow&quot; target=&quot;_NEW&quot;&gt;\nhttp://www.imdb.com/title/tt2202569/&lt;/a&gt;\n\nScreens:\n &lt;a href=&quot;\nhttp://www.shotpix.com/images/51852991798392976101.png&quot; rel=&quot;nofollow&quot; target=&quot;_NEW&quot;&gt;\nhttp://www.shotpix.com/images/51852991798392976101.png&lt;/a&gt;\n &lt;a href=&quot;\nhttp://www.shotpix.com/images/75564409617603883217.png&quot; rel=&quot;nofollow&quot; target=&quot;_NEW&quot;&gt;\nhttp://www.shotpix.com/images/75564409617603883217.png&lt;/a&gt;\n &lt;a href=&quot;\nhttp://www.shotpix.com/images/07963816129269131698.png&quot; rel=&quot;nofollow&quot; target=&quot;_NEW&quot;&gt;\nhttp://www.shotpix.com/images/07963816129269131698.png&lt;/a&gt;\n &lt;a href=&quot;\nhttp://www.shotpix.com/images/81642105616310509042.png&quot; rel=&quot;nofollow&quot; target=&quot;_NEW&quot;&gt;\nhttp://www.shotpix.com/images/81642105616310509042.png&lt;/a&gt;\n &lt;a href=&quot;\nhttp://www.shotpix.com/images/90270215416815984801.png&quot; rel=&quot;nofollow&quot; target=&quot;_NEW&quot;&gt;\nhttp://www.shotpix.com/images/90270215416815984801.png&lt;/a&gt;","torrent":{"xt":"urn:btih:15273f6a369dadb5113aa1067087f9127bf5cad6","amp;dn":"Sorority.Party.Massacre.2013.720p.BRRiP.x264-Acesn8s","amp;tr":["udp%3A%2F%2Ftracker.openbittorrent.com%3A80","udp%3A%2F%2Fopen.demonii.com%3A1337","udp%3A%2F%2Ftracker.coppersurfer.tk%3A6969","udp%3A%2F%2Fexodus.desync.com%3A6969"],"infoHash":"15273f6a369dadb5113aa1067087f9127bf5cad6","infoHashBuffer":{"type":"Buffer","data":[21,39,63,106,54,157,173,181,17,58,161,6,112,135,249,18,123,245,202,214]},"announce":[],"urlList":[]}}